/* XPM */
static char *_9496b7afef747638653f1ed14156c66[] = {
/* columns rows colors chars-per-pixel */
"65 67 119 2 ",
"   c None",
".  c #0A2357",
"X  c #09285C",
"o  c #09285D",
"O  c #092C61",
"+  c #093166",
"@  c #09346A",
"#  c #08356B",
"$  c #08396F",
"%  c #083D73",
"&  c #083E73",
"*  c #083E74",
"=  c #084177",
"-  c #07457C",
";  c #BEB65E",
":  c #FEC541",
">  c #FEC641",
",  c #FDC743",
"<  c #FEC642",
"1  c #FEC742",
"2  c #FDC843",
"3  c #FDC944",
"4  c #FDCA44",
"5  c #FDCA45",
"6  c #FCCB45",
"7  c #FDCB45",
"8  c #FCCB46",
"9  c #FCCC46",
"0  c #FCCD46",
"q  c #FCCD47",
"w  c #FCCE47",
"e  c #FBCF48",
"r  c #FCCE48",
"t  c #FCCF48",
"y  c #FBD049",
"u  c #FBD149",
"i  c #FBD14A",
"p  c #FBD24A",
"a  c #FAD34B",
"s  c #FBD34B",
"d  c #FAD44B",
"f  c #FAD44C",
"g  c #FAD54C",
"h  c #FAD64D",
"j  c #FAD74D",
"k  c #F9D74E",
"l  c #FAD74E",
"z  c #F9D84E",
"x  c #F9D84F",
"c  c #F9D94F",
"v  c #F9DA50",
"b  c #F9DB50",
"n  c #F8DB51",
"m  c #F9DB51",
"M  c #F8DC51",
"N  c #F8DC52",
"B  c #F8DD52",
"V  c #074980",
"C  c #074D83",
"Z  c #074D84",
"A  c #075188",
"S  c #06548B",
"D  c #06558C",
"F  c #06588F",
"G  c #065890",
"H  c #065B93",
"J  c #065C94",
"K  c #065F97",
"L  c #066098",
"P  c #05629B",
"I  c #05639B",
"U  c #05669F",
"Y  c #0569A2",
"T  c #056DA6",
"R  c #0470A9",
"E  c #0473AC",
"W  c #0475AF",
"Q  c #0476B0",
"!  c #0479B3",
"~  c #037CB6",
"^  c #047CB5",
"/  c #047CB6",
"(  c #037FB9",
")  c #0382BC",
"_  c #0384BF",
"`  c #0387C2",
"'  c #0389C4",
"]  c #038AC4",
"[  c #028CC7",
"{  c #028EC9",
"}  c #0290CC",
"|  c #0293CE",
" . c #0295D1",
".. c #0297D2",
"X. c #0297D3",
"o. c #0199D4",
"O. c #0199D5",
"+. c #019BD7",
"@. c #019DD8",
"#. c #019DD9",
"$. c #019EDA",
"%. c #019FDB",
"&. c #01A0DC",
"*. c #01A1DE",
"=. c #01A2DE",
"-. c #01A3E0",
";. c #01A5E1",
":. c #01A6E2",
">. c #01A6E3",
",. c #00A7E4",
"<. c #00A8E5",
"1. c #00A9E6",
"2. c #00AAE6",
"3. c #00AAE7",
"4. c #00ABE8",
"5. c #00ACE9",
"6. c #00ADE9",
"7. c #00ADEA",
"8. c #00AEEB",
/* pixels */
"                                                                y                                                                 ",
"                                                            t t t y y y                                                           ",
"                                                          t 7 t t e y y y                                                         ",
"                                                        7 t t t t t y y y y                                                       ",
"                                                      7 y 7 t y t e y y y y s                                                     ",
"                                                    9 9 7 y 7 t t t y y d y y s                                                   ",
"                                                  9 9 9 y 7 y t t e y y s y s s s                                                 ",
"                                                7 r 9 9 7 y t y t e y y y y s y s s                                               ",
"                                              7 9 9 7 e 7 t 7 t t e y y s y s d s s d                                             ",
"                                            7 7 9 9 9 7 9 t t t t e y y y y s t s s d d                                           ",
"                                          3 7 7 9 9 9 e e t t y t e y y e d s s s s d d d                                         ",
"                                        3 7 3 7 9 9 9 7 e 7 7 y t e y y t d t y s f y f s z                                       ",
"                                      3 3 7 3 7 8 9 9 9 9 r 9 r     y y y d s s s s f f f f f                                     ",
"                                    3 3 7 3 7 7 8 9 9 9 r r y         y y y y s s s y f f f s z                                   ",
"                                  2 3 3 3 7 7 7 9 9 9 9 r 7             y y s s s s d f f z f f z                                 ",
"                                2 2 3 3 7 3 3 7 9 9 9 9 r                 s s y s s d f f f f z j f                               ",
"                              2 2 2 3 3 3 3 7 7 8 9 9 7                     y s j y y f f f s j j j j                             ",
"                            : 2 2 2 3 3 3 7 3 7 8 9 9                         y y j f f f f f j j j v f                           ",
"                          : 2 2 2 2 3 3 7 3 7 7 9 9                             s s d f f f d z j l j f z                         ",
"                        2 2 2 : 2 2 3 3 3 7 3 7 7                                 s d d s z s j j z f v z v                       ",
"                      : : 2 : 3 3 3 3 3 7 3 7 7                                     s f f f z j j j l l l l x                     ",
"                      : : : 2 : 2 3 3 3 3 7 3                                         f f s s z j j l l x x x x                   ",
"                    : 2 3 : 2 3 2 2 3 3 3 7                                             f z f z j j j l x x x x M                 ",
"                    : : : 2 : 3 2 2 3 3 7                                                 f f f j j l l k x x x v v               ",
"                    : : : 2 2 : 2 2 3 3 3 7                                     s           f z f z v f z v z v v v b             ",
"                    : : : 2 : 3 2 2 3 3 7 3 3                                 s s s           f z z f v z f v z v v b M           ",
"                      : : 2 : , 2 2 3 3 3 3 7 7                             s y s s s           f z v f z v z v v v M M v         ",
"          8.4.          : 2 2 3 2 2 3 3 3 r 3 7 7                         y s s s s s f           l f v f l v z v v z M M M       ",
"        8.4.4.3.          : 2 : 2 2 3 3 3 3 3 7 r 7                     y y s s s s s f j           l z z v z v v v v B v M M     ",
"      8.8.8.3.3.2.          2 : 2 2 3 3 3 3 7 7 3 r 7                 y y s s y y j s f s z           f v f v z v v v v M M B B   ",
"      8.4.8.3.3.2.3.          3 2 2 3 3 7 3 7 7 r 3 r 9           y y y y y s y j y f f f f f           v v v v v v v M v M N     ",
"    8.8.8.3.3.3.2.3.>.          2 2 3 3 3 7 3 7 3 r 9 9 r       t e t t s y s s y j y f f f               f v v v v v B v M       ",
"  8.8.8.8.2.3.3.3.,.>.>.          3 3 3 7 3 7 7 9 9 7 e e 7   t t e y y y y s s j y s s s                   z z v v v M v         ",
"8.8.8.4.8.8.3.3.3.3.,.>.>.>.        3 3 3 7 3 7 9 9 9 7 7 t t t t e y y d y s y y j s j                       v v v M v           ",
"  8.8.8.8.3.2.8.3.,.>.>.>.&.=.        3 7 3 3 7 9 9 9 e e t e t t e y y d y s y j y                             v v M             ",
"    8.4.8.8.2.3.3.,.3.>.=.>.=.&.        3 7 7 7 9 9 9 7 e 7 7 t t e y y t t s s y                                 v               ",
"      8.8.2.2.3.3.3.,.,.>.=.&.&.&.        3 7 7 8 9 9 9 9 e t t t y y y e y s s                                                   ",
"        8.8.8.3.,.,.,.,.=.>.=.&.&.$.        3 7 8 9 9 9 7 t t t t y y y d y s ;   H H A A Z V - = * $ @ + O X .                   ",
"            2.2.2.,.,.>.>.&.=.&.$.$.+.+.      7 9 9 9 9 t t t t t t y y y y   I I H H D A Z V - = % $ @ + O X                     ",
"              2.2.,.,.>.>.>.=.&.$.+.+.+.        9 9 9 9 7 t 7 y t e y y y             D A Z V - = * $ @ + O                       ",
"                3.,.>.>.>.&.=.&.$.$.+.X.          7 7 r r 9 7 y t e y y           H H S A Z V - = % $ @                           ",
"                  3.,.>.>.>.=.&.$.$.+.+.X.X.|         7 7 y t y t e y                 S A Z V - = % $ @ @ O                       ",
"                  ,.,.>.=.>.&.&.$.$.+.X.X.X.|           r 7 y y 7 y             I J H S A Z V - = % $ @ + O X                     ",
"                3.3.,.>.>.&.&.&.$.$.+.+.X.X.|             t t 7 y         Y U I K J D S A Z V - = %                               ",
"              3.3.>.>.>.>.-.-.&.%.$.+.+.X.X.| { { [ '                         I J J D D A Z V - =                                 ",
"              3.3.3.,.>.>.>.&.&.%.+.+.X.X.|  .{ { [                               J H D A Z V - = *                               ",
"                3.,.,.>.&.>.&.&.%.$.+.+.X. .| {                       R T Y Y I I J H D A Z V - = %                               ",
"                            -.%.%.+.+.X.X. .| | { { '               E R T Y U I K J D D A Z V - = %                               ",
"                        >.>.&.&.$.$.+.+.X.| | { { [ ' `             E R T Y U I L J H D A Z V - =                                 ",
"                        >.&.&.&.$.$.+.+.X.X.| | { { ' ` )           E R T Y U I L J D D A Z                                       ",
"                            &.&.$.$.+.X.X.X.| { { [ ' ` `           E R T Y U I L J D D A Z V - =                                 ",
"                                  +.+.+.X.| | { { [ ' ` `         Q R R T Y U I L J H D A                                         ",
"                                $.    o.....| } { [ ' ` ` (     ! Q E R T Y U I L J                                               ",
"                      >.>.>.&.&.$.$.+.+.X...| } { [ ' ` ` ) ( ! ! Q E R T Y U I L                                                 ",
"                          >.&.&.$.$.+.+.X...| } { [ ' ` ) ) ( / ! Q E R T Y Y I L J                                               ",
"                                        .. .| } { [ ' ` ` ( ( / ! Q E R T Y U I L J                                               ",
"                                      o.....| } { [ ' ` _ ) ( / ! Q E R T Y Y I I H                                               ",
"                                  +.+.+.....| } { [ ' ` _ ) ( / ! Q E R                                                           ",
"                                $.$.+.+... .} } { [ ' ` _ ) ( / ! Q E                                                             ",
"                                          ..} } { [ ' ` _ ) ( / ! Q E R T Y                                                       ",
"                                                { [ ' ` _ ) ( / ! Q E R T Y U I                                                   ",
"                                            } } { [ ' ` _ ) ( / ! Q E R T Y                                                       ",
"                                              } { [ ' ` _ ) ( / ! Q E R                                                           ",
"                                                    ' ` _ ) ( / ! Q                                                               ",
"                                                        _ ) ( / !                                                                 ",
"                                                          ) ( / !                                                                 ",
"                                                            ( /                                                                   "
};
