/* XPM */
static char *_7977dbd39e245d0f9f53fc7fb0e7565[] = {
/* columns rows colors chars-per-pixel */
"17 17 55 1 ",
"  c None",
". c #092C60",
"X c #092F64",
"o c #083C72",
"O c #083E74",
"+ c #497C7F",
"@ c #ECCA4F",
"# c #FEC541",
"$ c #FEC742",
"% c #FDC843",
"& c #FDCA44",
"* c #FDCA45",
"= c #FCCC46",
"- c #FCCD47",
"; c #FCCE47",
": c #FBCF48",
"> c #FBD049",
", c #FBD149",
"< c #FBD14A",
"1 c #FAD34B",
"2 c #FBD34B",
"3 c #FAD54C",
"4 c #FAD64D",
"5 c #FAD74E",
"6 c #F9D84F",
"7 c #F9DA50",
"8 c #F8DC51",
"9 c #074C84",
"0 c #074D84",
"q c #065B92",
"w c #065C93",
"e c #065D95",
"r c #0568A0",
"t c #0569A2",
"y c #056AA2",
"u c #056AA3",
"i c #0473AC",
"p c #0475AF",
"a c #0476AF",
"s c #0381BB",
"d c #0382BC",
"f c #038CC7",
"g c #028DC8",
"h c #0293CF",
"j c #0295D0",
"k c #0295D1",
"l c #019CD8",
"z c #019DD8",
"x c #1AA2CA",
"c c #01A3DF",
"v c #01A3E0",
"b c #00A8E5",
"n c #00ACE8",
"m c #00ACE9",
"M c #00AEEB",
/* pixels */
"       -,        ",
"      --,,       ",
"     *--,,2      ",
"    #*--:,24     ",
"    %*-  <224    ",
"   %%*    2447   ",
"  #%%%    24447  ",
" n #%*-  <,47778 ",
"Mnb %*--<<<   7  ",
" nbvx%--:@+9o.   ",
"  bvzj--: q9oX   ",
"  bvljg  re9O    ",
"   vljf prw0     ",
"   cljfdare      ",
"    ljgdau       ",
"     hfdar       ",
"       d         "
};
