/* XPM */
static char *_df22a8ef371470d994c977edd60cfd8[] = {
/* columns rows colors chars-per-pixel */
"33 34 84 1 ",
"  c None",
". c #09265A",
"X c #092F64",
"o c #08376D",
"O c #083F75",
"+ c #084076",
"@ c #07487E",
"# c #07487F",
"$ c #A9AD65",
"% c #FEC541",
"& c #FDC743",
"* c #FEC642",
"= c #FEC743",
"- c #FDC843",
"; c #FDC944",
": c #FDCA44",
"> c #FDCA45",
", c #FDCB45",
"< c #FCCB46",
"1 c #FCCC46",
"2 c #FCCD46",
"3 c #FCCD47",
"4 c #FBCF48",
"5 c #FCCE48",
"6 c #FCCF48",
"7 c #FBD049",
"8 c #FBD149",
"9 c #FBD24A",
"0 c #FAD34B",
"q c #FBD34B",
"w c #FAD44B",
"e c #FAD44C",
"r c #FAD54C",
"t c #FAD54D",
"y c #FAD64D",
"u c #FAD74E",
"i c #F9D84F",
"p c #F9D94F",
"a c #F9DA50",
"s c #F9DB50",
"d c #F8DB51",
"f c #F8DC51",
"g c #F8DC52",
"h c #074F86",
"j c #06568D",
"k c #06578E",
"l c #065D95",
"z c #065E96",
"x c #05649D",
"c c #05659D",
"v c #056CA4",
"b c #056CA5",
"n c #0472AB",
"m c #0477B1",
"M c #0478B2",
"N c #037EB8",
"B c #0383BD",
"V c #0384BE",
"C c #0388C3",
"Z c #0389C4",
"A c #028DC8",
"S c #028EC9",
"D c #0291CD",
"F c #0292CE",
"G c #0296D2",
"H c #0297D2",
"J c #019AD5",
"K c #019AD6",
"L c #019ED9",
"P c #019EDA",
"I c #01A1DD",
"U c #01A1DE",
"Y c #01A4E0",
"T c #01A4E1",
"R c #00A7E3",
"E c #01A7E3",
"W c #00A9E5",
"Q c #00A9E6",
"! c #00ABE7",
"~ c #00ABE8",
"^ c #00ACE9",
"/ c #00ADE9",
"( c #00ADEA",
") c #00AEEB",
/* pixels */
"                                 ",
"               667               ",
"              16777              ",
"             1667777             ",
"            111667qqq            ",
"           111666777qq           ",
"          ;11166677qqqy          ",
"         ;;1111   7qqqrr         ",
"        ;;;;11     qqqrti        ",
"       =;;;11       qrrtyu       ",
"      %=;;;1         rrtyui      ",
"     %==;;;           ttyuii     ",
"     %%;;;;         q  tttiis    ",
"     %%=;;,;       qqq  ttisss   ",
"  (!  %;%;;,1     qqyq   siissss ",
" ((!!  %;;;,11   44q7rt   sssssg ",
"(((~!E  ;;;;116 44qqqrr    isss  ",
"(((~!ET  ;1111<66qq47r      ss   ",
" ((!!TTU  ;111461q4q6            ",
"  (~!TTUPK 111;6144$xkh#OoX.     ",
"    ETTUPK  1166777 lkh#OoX      ",
"    !!TUPKHF 16667   jh#OoX      ",
"   !!TTUPKHFA  6   clkh#+        ",
"   !!TTUPKHFA     vclkh#O        ",
"      TUPKGDDC   nvcljh@+        ",
"      UUPKHDACV  nvcljhh         ",
"        PKHFACB Mnvclj           ",
"     ETUIKHFDCBNMnvcl            ",
"         KGDACVNMnvcl            ",
"        PKGDACVNMn               ",
"            ACVNMnvc             ",
"           DACVNMnv              ",
"             ZBNM                ",
"              BN                 "
};
